<?xml version="1.0" encoding="UTF-8"?><svg id="Layer_1" xmlns="http://www.w3.org/2000/svg" viewBox="0 0 114 114"><defs><style>.cls-1{fill:#b11cab;}.cls-2{fill:none;stroke:#fff;stroke-linecap:round;stroke-linejoin:round;stroke-width:11px;}</style></defs><path class="cls-2" d="M69.01,20.32c-1.08,4.33.05,8.51,2.52,9.33,2.47.82,5.35-2.02,6.43-6.36,1.07-4.33-.05-8.51-2.52-9.33-2.47-.82-5.35,2.02-6.42,6.35"/><path class="cls-2" d="M60.29,17.72c-.78,3.5.21,6.81,2.2,7.4,2,.59,4.25-1.77,5.03-5.27.79-3.5-.2-6.81-2.2-7.4-2-.59-4.25,1.77-5.03,5.27"/><path class="cls-2" d="M51.2,17.06c-.44,3.57.87,6.71,2.91,7.01,2.05.3,4.06-2.35,4.5-5.93.44-3.58-.86-6.71-2.91-7.01-2.05-.3-4.06,2.35-4.5,5.93"/><path class="cls-2" d="M42.64,17.6c-.13,3.41,1.35,6.21,3.31,6.26,1.96.04,3.66-2.69,3.79-6.1.13-3.41-1.35-6.22-3.31-6.26-1.96-.05-3.66,2.68-3.79,6.1"/><path class="cls-2" d="M35.78,21.36c.58,2.62,2.27,4.3,3.79,3.77,1.52-.54,2.28-3.09,1.7-5.71-.58-2.62-2.28-4.3-3.79-3.77-1.51.54-2.27,3.09-1.69,5.71"/><path class="cls-2" d="M36.38,33.22s.1-.47.66-1.29c.54-.79,1.68-1.86,3.53-2.4.92-.29,1.99-.42,3.14-.36.58.03,1.18.09,1.8.22.31.05.63.13.94.22l.24.06c.07.02.02,0,.18.06l.1.04c.11.03.33.12.55.24,1.39.77,2.19,1.4,3.08,1.63.46.14.82.18,1.42.21.39,0,1.02-.04,1.64-.13,1.27-.16,2.69-.48,4.29-.79,1.57-.3,3.68-.61,5.94-.03,2.18.51,4.21,1.77,5.76,3.42,1.57,1.64,2.68,3.67,3.34,5.85.65,2.18.86,4.55.46,6.93-.2,1.19-.55,2.38-1.06,3.51-.39.85-.78,1.7-1.17,2.56-1.46,3.26-2.44,6.53-2.86,10.03-.4,3.49-.44,7.29-.32,10.95.16,3.34.88,7.19,1.01,11.06.08,1.95,0,3.92-.29,5.84-.09.5-.14.91-.26,1.48-.1.42-.18.82-.33,1.37-.29,1.01-.63,1.91-1.09,2.83-.89,1.82-2.3,3.51-4.03,4.54-1.72,1.06-3.58,1.49-5.23,1.58-1.66.1-3.18-.06-4.56-.33-1.41-.28-2.59-.56-3.85-.99-2.56-.88-4.26-2.6-5.19-4.14-.95-1.56-1.2-2.96-1.35-3.86-.12-.92-.07-1.41-.07-1.41,0,0,.1.48.43,1.32.33.83.93,2.02,2.02,3.18,1.06,1.18,2.76,2.15,4.78,2.5,2.15.29,4.87.42,7.29-.07,1.21-.27,2.33-.74,3.2-1.46.86-.72,1.5-1.7,1.95-2.92.22-.59.4-1.3.5-1.95.06-.28.12-.72.17-1.16.03-.36.06-.73.09-1.1.1-1.55.01-3.15-.16-4.83-.35-3.36-1.23-6.87-1.65-11.13-.15-2-.2-3.93-.22-5.95-.02-2.01.06-4.07.3-6.15.24-2.08.63-4.2,1.24-6.24.6-2.04,1.37-3.97,2.21-5.83.42-.96.88-1.82,1.25-2.59.28-.57.49-1.19.62-1.84.26-1.29.23-2.69-.08-4-.31-1.31-.9-2.52-1.66-3.49-.77-.96-1.72-1.63-2.74-2.01-.58-.19-.9-.29-1.63-.34-.57-.03-1.3.02-2.04.08-1.49.12-3.06.32-4.68.36-.82.02-1.63,0-2.61-.16-.78-.12-1.74-.45-2.49-.84-1.57-.81-2.57-2.01-3.17-2.48-.04-.04-.07-.09-.23-.18l-.09-.06c.09.04-.02-.02-.02-.02l-.16-.09c-.21-.13-.42-.25-.64-.35-.43-.22-.87-.38-1.29-.52-.86-.27-1.69-.39-2.44-.42-1.52-.04-2.7.46-3.43.94-.35.25-.62.47-.79.64-.17.16-.26.25-.26.25"/><path class="cls-1" d="M69.06,20.32c-1.08,4.33.05,8.51,2.52,9.33,2.47.82,5.35-2.02,6.43-6.36,1.07-4.33-.05-8.51-2.52-9.33-2.47-.82-5.35,2.02-6.42,6.35"/><path class="cls-1" d="M60.35,17.72c-.78,3.5.21,6.81,2.2,7.4,2,.59,4.25-1.77,5.03-5.27.79-3.5-.2-6.81-2.2-7.4-2-.59-4.25,1.77-5.03,5.27"/><path class="cls-1" d="M51.26,17.06c-.44,3.57.87,6.71,2.91,7.01,2.05.3,4.06-2.35,4.5-5.93.44-3.58-.86-6.71-2.91-7.01-2.05-.3-4.06,2.35-4.5,5.93"/><path class="cls-1" d="M42.69,17.6c-.13,3.41,1.35,6.21,3.31,6.26,1.96.04,3.66-2.69,3.79-6.1.13-3.41-1.35-6.22-3.31-6.26-1.96-.05-3.66,2.68-3.79,6.1"/><path class="cls-1" d="M35.84,21.36c.58,2.62,2.27,4.3,3.79,3.77,1.52-.54,2.28-3.09,1.7-5.71-.58-2.62-2.28-4.3-3.79-3.77-1.51.54-2.27,3.09-1.69,5.71"/><path class="cls-1" d="M36.44,33.22s.1-.47.66-1.29c.54-.79,1.68-1.86,3.53-2.4.92-.29,1.99-.42,3.14-.36.58.03,1.18.09,1.8.22.31.05.63.13.94.22l.24.06c.07.02.02,0,.18.06l.1.04c.11.03.33.12.55.24,1.39.77,2.19,1.4,3.08,1.63.46.14.82.18,1.42.21.39,0,1.02-.04,1.64-.13,1.27-.16,2.69-.48,4.29-.79,1.57-.3,3.68-.61,5.94-.03,2.18.51,4.21,1.77,5.76,3.42,1.57,1.64,2.68,3.67,3.34,5.85.65,2.18.86,4.55.46,6.93-.2,1.19-.55,2.38-1.06,3.51-.39.85-.78,1.7-1.17,2.56-1.46,3.26-2.44,6.53-2.86,10.03-.4,3.49-.44,7.29-.32,10.95.16,3.34.88,7.19,1.01,11.06.08,1.95,0,3.92-.29,5.84-.09.5-.14.91-.26,1.48-.1.42-.18.82-.33,1.37-.29,1.01-.63,1.91-1.09,2.83-.89,1.82-2.3,3.51-4.03,4.54-1.72,1.06-3.58,1.49-5.23,1.58-1.66.1-3.18-.06-4.56-.33-1.41-.28-2.59-.56-3.85-.99-2.56-.88-4.26-2.6-5.19-4.14-.95-1.56-1.2-2.96-1.35-3.86-.12-.92-.07-1.41-.07-1.41,0,0,.1.48.43,1.32.33.83.93,2.02,2.02,3.18,1.06,1.18,2.76,2.15,4.78,2.5,2.15.29,4.87.42,7.29-.07,1.21-.27,2.33-.74,3.2-1.46.86-.72,1.5-1.7,1.95-2.92.22-.59.4-1.3.5-1.95.06-.28.12-.72.17-1.16.03-.36.06-.73.09-1.1.1-1.55.01-3.15-.16-4.83-.35-3.36-1.23-6.87-1.65-11.13-.15-2-.2-3.93-.22-5.95-.02-2.01.06-4.07.3-6.15.24-2.08.63-4.2,1.24-6.24.6-2.04,1.37-3.97,2.21-5.83.42-.96.88-1.82,1.25-2.59.28-.57.49-1.19.62-1.84.26-1.29.23-2.69-.08-4-.31-1.31-.9-2.52-1.66-3.49-.77-.96-1.72-1.63-2.74-2.01-.58-.19-.9-.29-1.63-.34-.57-.03-1.3.02-2.04.08-1.49.12-3.06.32-4.68.36-.82.02-1.63,0-2.61-.16-.78-.12-1.74-.45-2.49-.84-1.57-.81-2.57-2.01-3.17-2.48-.04-.04-.07-.09-.23-.18l-.09-.06c.09.04-.02-.02-.02-.02l-.16-.09c-.21-.13-.42-.25-.64-.35-.43-.22-.87-.38-1.29-.52-.86-.27-1.69-.39-2.44-.42-1.52-.04-2.7.46-3.43.94-.35.25-.62.47-.79.64-.17.16-.26.25-.26.25"/></svg>