<svg width="15" height="15" viewBox="0 0 15 15" fill="none" xmlns="http://www.w3.org/2000/svg">
<path d="M5.0394 6.45666C5.78075 7.7603 6.8647 8.84425 8.16834 9.58557L8.86857 8.60525C9.1014 8.2794 9.54085 8.1787 9.89235 8.37068C11.0061 8.97907 12.2369 9.34878 13.5208 9.45043C13.9325 9.48305 14.25 9.82663 14.25 10.2396V13.7727C14.25 14.1786 13.943 14.5187 13.5392 14.5602C13.1197 14.6033 12.6965 14.625 12.2708 14.625C5.49384 14.625 0 9.13115 0 2.35417C0 1.92846 0.0217076 1.50527 0.0648297 1.08573C0.106321 0.681969 0.446453 0.375 0.852348 0.375H4.38537C4.79837 0.375 5.14198 0.69249 5.17457 1.1042C5.2762 2.38811 5.64593 3.61897 6.25432 4.73268C6.4463 5.08415 6.3456 5.52364 6.01975 5.75641L5.0394 6.45666ZM3.04336 5.93662L4.54749 4.86224C4.121 3.94157 3.82872 2.9652 3.67909 1.95833H1.59051C1.58573 2.09 1.58333 2.22196 1.58333 2.35417C1.58333 8.25668 6.36833 13.0417 12.2708 13.0417C12.403 13.0417 12.535 13.0393 12.6667 13.0345V10.9459C11.6598 10.7963 10.6835 10.504 9.76275 10.0775L8.68838 11.5817C8.25376 11.4128 7.83402 11.2141 7.43169 10.9882L7.3857 10.962C5.83435 10.0798 4.54523 8.79065 3.66304 7.2393L3.63687 7.19331C3.41089 6.79098 3.21222 6.37124 3.04336 5.93662Z" fill="white"/>
</svg>
